<svg width="125" height="117" viewBox="0 0 125 117" fill="none" xmlns="http://www.w3.org/2000/svg">
<ellipse cx="62.5" cy="101" rx="62.5" ry="16" fill="black" fill-opacity="0.42"/>
<circle cx="62" cy="54" r="54" fill="url(#paint0_linear_59_79)"/>
<path d="M15.904 62.4H65.34V66.412H39.84V84.024H52.352V88.104H39.84V105.92H65.34V110H15.904V62.4ZM85.5748 61.992C90.3348 61.992 94.4828 63.012 98.0188 65.052C101.6 67.092 104.343 69.948 106.247 73.62C108.151 77.2467 109.103 81.4173 109.103 86.132C109.103 90.892 108.151 95.108 106.247 98.78C104.343 102.407 101.6 105.24 98.0188 107.28C94.4828 109.32 90.3348 110.34 85.5748 110.34C80.8148 110.34 76.6441 109.32 73.0628 107.28C69.5268 105.24 66.7841 102.407 64.8348 98.78C62.9308 95.108 61.9788 90.892 61.9788 86.132C61.9788 81.4173 62.9308 77.2467 64.8348 73.62C66.7841 69.948 69.5268 67.092 73.0628 65.052C76.6441 63.012 80.8148 61.992 85.5748 61.992ZM81.2908 68.588C80.5201 69.948 80.0214 72.0107 79.7948 74.776C79.6134 76.4987 79.5228 80.1027 79.5228 85.588L91.0148 72.26C90.7428 70.764 90.3348 69.54 89.7908 68.588C88.8841 66.8653 87.4788 66.004 85.5748 66.004C83.6708 66.004 82.2428 66.8653 81.2908 68.588ZM89.7908 103.744C90.5614 102.384 91.0601 100.321 91.2868 97.556C91.5134 95.38 91.6268 91.8213 91.6268 86.88L80.1348 100.276C80.4068 101.817 80.7921 102.973 81.2908 103.744C82.2428 105.467 83.6708 106.328 85.5748 106.328C87.4788 106.328 88.8841 105.467 89.7908 103.744Z" fill="white"/>
<defs>
<linearGradient id="paint0_linear_59_79" x1="62" y1="0" x2="62" y2="108" gradientUnits="userSpaceOnUse">
<stop stop-color="#FFE686"/>
<stop offset="1" stop-color="#D9A200"/>
</linearGradient>
</defs>
</svg>
